<svg width="0" height="0" class="hidden">
  <symbol  xmlns="http://www.w3.org/2000/svg" viewBox="0 0 20 20" id="pinterest">
    <path d="M9.79664 0C4.38662 0 0 4.38466 0 9.79227C0 13.801 2.41417 17.2458 5.86486 18.7627C5.83862 18.0807 5.86049 17.2589 6.03543 16.5157C6.22349 15.7201 7.295 11.178 7.295 11.178C7.295 11.178 6.9801 10.5529 6.9801 9.63052C6.9801 8.17916 7.81982 7.09502 8.86946 7.09502C9.76165 7.09502 10.1903 7.76387 10.1903 8.56386C10.1903 9.46003 9.61732 10.7977 9.3243 12.0392C9.07938 13.0797 9.84475 13.9234 10.8725 13.9234C12.7269 13.9234 13.9777 11.5409 13.9777 8.71687C13.9777 6.57044 12.5301 4.96608 9.9016 4.96608C6.932 4.96608 5.07763 7.18245 5.07763 9.65675C5.07763 10.5092 5.3313 11.1125 5.72491 11.5759C5.90422 11.7901 5.93046 11.8775 5.86486 12.1223C5.81675 12.3015 5.71179 12.7343 5.66368 12.9092C5.59808 13.1584 5.3969 13.2458 5.17385 13.154C3.80494 12.5944 3.16641 11.0994 3.16641 9.41194C3.16641 6.63164 5.51498 3.29615 10.1684 3.29615C13.9077 3.29615 16.37 6.00213 16.37 8.90484C16.37 12.7474 14.2314 15.6152 11.0824 15.6152C10.0241 15.6152 9.03128 15.0425 8.69014 14.3955C8.69014 14.3955 8.12159 16.6512 7.99913 17.0884C7.79357 17.8447 7.38684 18.5966 7.01509 19.1867C7.91686 19.4526 8.85208 19.5881 9.79226 19.5889C15.2023 19.5889 19.5889 15.2042 19.5889 9.79664C19.5889 4.38903 15.2067 0 9.79664 0Z" ></path>
  </symbol>
  <symbol fill="none" xmlns="http://www.w3.org/2000/svg" viewBox="0 0 15 14" id="star">
    <path d="M6.82942 0.781287C7.13702 -0.122413 8.41509 -0.122403 8.72279 0.781287L9.70629 3.67075C9.84419 4.07602 10.2248 4.34853 10.6529 4.34853H13.7331C14.7131 4.34853 15.1083 5.61178 14.303 6.17025L11.8923 7.84218C11.5254 8.09662 11.3717 8.56342 11.5155 8.98612L12.455 11.7462C12.7658 12.6594 11.7311 13.4399 10.9385 12.8901L8.34599 11.0922C8.00319 10.8544 7.54893 10.8544 7.20619 11.0922L4.61371 12.8901C3.82104 13.4399 2.78632 12.6594 3.09715 11.7462L4.03664 8.98612C4.18051 8.56342 4.02675 8.09662 3.65987 7.84218L1.24913 6.17025C0.443886 5.61178 0.839076 4.34853 1.81902 4.34853H4.89923C5.32733 4.34853 5.70795 4.07602 5.8459 3.67075L6.82942 0.781287Z" fill="#FFA858"></path>
  </symbol>
  <symbol  xmlns="http://www.w3.org/2000/svg" viewBox="0 0 21 17" id="twitter">
    <path d="M20.6602 1.95842C19.8852 2.29516 19.0652 2.51701 18.2261 2.61696C19.1079 2.10062 19.7711 1.28032 20.0912 0.30991C19.2575 0.7974 18.3469 1.13945 17.3984 1.3214C16.9991 0.902826 16.5187 0.569842 15.9866 0.342684C15.4546 0.115526 14.8818 -0.00106199 14.3033 7.28894e-06C11.9609 7.28894e-06 10.0654 1.86803 10.0654 4.17078C10.0637 4.49108 10.1004 4.81043 10.1747 5.12201C8.49507 5.04327 6.85036 4.61479 5.34581 3.864C3.84126 3.1132 2.50999 2.05662 1.43717 0.761851C1.0608 1.39634 0.861758 2.12028 0.86084 2.858C0.86084 4.30421 1.61537 5.58256 2.75469 6.33149C2.07967 6.31547 1.41849 6.13681 0.827268 5.81068V5.86233C0.827268 7.8853 2.2907 9.56825 4.22759 9.95132C3.86336 10.0484 3.48803 10.0976 3.11108 10.0977C2.84361 10.0981 2.57674 10.0722 2.31437 10.0202C2.85283 11.6773 4.41999 12.8825 6.27639 12.9169C4.76793 14.0794 2.91593 14.7078 1.01149 14.7032C0.673443 14.7027 0.335713 14.6825 0 14.6429C1.9374 15.88 4.18947 16.5344 6.48815 16.5281C14.2943 16.5281 18.5589 10.1708 18.5589 4.65715C18.5589 4.47638 18.5541 4.2956 18.5455 4.11913C19.3733 3.53034 20.0893 2.79865 20.6602 1.95842Z" ></path>
  </symbol>
  <symbol fill="none" xmlns="http://www.w3.org/2000/svg" viewBox="0 0 17 13" id="arrow-hero">
    <path d="M15.0384 6.50003H1M9.07688 1L16 6.50003L9.07688 12V1Z" stroke="white" stroke-linecap="round" stroke-linejoin="round"></path>
  </symbol>
  <symbol fill="none" xmlns="http://www.w3.org/2000/svg" viewBox="0 0 26 24" id="bag">
    <g clip-path="url(#clip0_1_34)">
      <path d="M10.7779 23.0001C11.4529 23.0001 12.0001 22.4529 12.0001 21.7779C12.0001 21.1029 11.4529 20.5557 10.7779 20.5557C10.1029 20.5557 9.55566 21.1029 9.55566 21.7779C9.55566 22.4529 10.1029 23.0001 10.7779 23.0001Z" fill="white" stroke="white" stroke-width="1.5" stroke-linecap="round" stroke-linejoin="round"></path>
      <path d="M19.3336 23.0001C20.0086 23.0001 20.5558 22.4529 20.5558 21.7779C20.5558 21.1029 20.0086 20.5557 19.3336 20.5557C18.6585 20.5557 18.1113 21.1029 18.1113 21.7779C18.1113 22.4529 18.6585 23.0001 19.3336 23.0001Z" fill="white" stroke="white" stroke-width="1.5" stroke-linecap="round" stroke-linejoin="round"></path>
      <path d="M1 1H4.7819L7.61832 17.0731H22.7459" stroke="white" stroke-width="2" stroke-linecap="round" stroke-linejoin="round"></path>
      <path d="M7.11121 13.1837L22.3584 13.2907C22.4677 13.2908 22.5737 13.2529 22.6583 13.1837C22.7429 13.1144 22.8008 13.0179 22.8223 12.9107L24.5241 4.40145C24.5378 4.33283 24.5362 4.26203 24.5192 4.19414C24.5023 4.12625 24.4705 4.06297 24.4261 4.00886C24.3817 3.95476 24.3259 3.91118 24.2626 3.88128C24.1993 3.85138 24.1302 3.83589 24.0602 3.83594H5.56738" stroke="white" stroke-width="2" stroke-linecap="round" stroke-linejoin="round"></path>
    </g>
    <defs>
      <clipPath id="clip0_1_34">
        <rect width="26" height="24" fill="white"></rect>
      </clipPath>
    </defs>
  </symbol>
  <symbol  xmlns="http://www.w3.org/2000/svg" viewBox="0 0 20 19" id="facebook">
    <path fill-rule="evenodd" clip-rule="evenodd" d="M19.2828 9.28432C19.2828 4.15722 14.9657 0 9.64141 0C4.31711 0 0 4.15722 0 9.28432C0 13.9182 3.52514 17.7592 8.13494 18.4563V11.9689H5.68628V9.28432H8.13494V7.23887C8.13494 4.9124 9.5747 3.62627 11.7767 3.62627C12.8317 3.62627 13.9353 3.80782 13.9353 3.80782V6.09284H12.7189C11.5219 6.09284 11.1475 6.80823 11.1475 7.54351V9.28432H13.8212L13.3942 11.9689H11.1479V18.4572C15.7577 17.7604 19.2828 13.9194 19.2828 9.28432Z" ></path>
  </symbol>
  <symbol  xmlns="http://www.w3.org/2000/svg" viewBox="0 0 20 19" id="insta">
    <g clip-path="url(#clip0_1_478)">
      <path d="M13.6585 1.54725C14.7231 1.55031 15.7431 1.95889 16.4958 2.68376C17.2486 3.40863 17.6729 4.39088 17.6761 5.41599V13.1527C17.6729 14.1778 17.2486 15.16 16.4958 15.8849C15.7431 16.6098 14.7231 17.0183 13.6585 17.0214H5.6243C4.55976 17.0183 3.53973 16.6098 2.78698 15.8849C2.03423 15.16 1.60994 14.1778 1.60676 13.1527V5.41599C1.60994 4.39088 2.03423 3.40863 2.78698 2.68376C3.53973 1.95889 4.55976 1.55031 5.6243 1.54725H13.6585ZM13.6585 0H5.6243C2.53087 0 0 2.43713 0 5.41599V13.1527C0 16.1315 2.53087 18.5686 5.6243 18.5686H13.6585C16.752 18.5686 19.2828 16.1315 19.2828 13.1527V5.41599C19.2828 2.43713 16.752 0 13.6585 0Z" ></path>
      <path d="M14.8633 5.41679C14.6249 5.41679 14.3919 5.34872 14.1937 5.2212C13.9956 5.09368 13.8411 4.91243 13.7499 4.70037C13.6587 4.4883 13.6348 4.25496 13.6813 4.02984C13.7278 3.80471 13.8426 3.59792 14.0111 3.43562C14.1797 3.27332 14.3944 3.16278 14.6282 3.118C14.862 3.07323 15.1043 3.09621 15.3245 3.18405C15.5447 3.27188 15.7329 3.42063 15.8654 3.61148C15.9978 3.80233 16.0685 4.02671 16.0685 4.25625C16.0688 4.40874 16.0379 4.5598 15.9774 4.70075C15.917 4.8417 15.8282 4.96977 15.7163 5.0776C15.6043 5.18543 15.4713 5.27091 15.3249 5.32911C15.1785 5.38732 15.0217 5.41711 14.8633 5.41679ZM9.64102 6.1902C10.2767 6.1902 10.8981 6.37172 11.4266 6.71179C11.9551 7.05186 12.3671 7.53522 12.6103 8.10075C12.8536 8.66627 12.9172 9.28855 12.7932 9.8889C12.6692 10.4893 12.3631 11.0407 11.9136 11.4736C11.4641 11.9064 10.8915 12.2012 10.268 12.3206C9.64458 12.44 8.99837 12.3787 8.4111 12.1445C7.82382 11.9102 7.32187 11.5135 6.96872 11.0046C6.61557 10.4956 6.42707 9.89723 6.42707 9.28512C6.42798 8.46456 6.76689 7.67787 7.36942 7.09765C7.97196 6.51743 8.78891 6.19108 9.64102 6.1902ZM9.64102 4.64295C8.68757 4.64295 7.75554 4.91521 6.96278 5.4253C6.17002 5.93539 5.55214 6.66039 5.18727 7.50864C4.8224 8.35688 4.72694 9.29027 4.91294 10.1908C5.09895 11.0913 5.55808 11.9184 6.23227 12.5676C6.90645 13.2168 7.76542 13.659 8.70055 13.8381C9.63567 14.0172 10.605 13.9253 11.4858 13.5739C12.3667 13.2226 13.1196 12.6276 13.6493 11.8642C14.179 11.1008 14.4617 10.2033 14.4617 9.28512C14.4617 8.05394 13.9538 6.87319 13.0498 6.00261C12.1457 5.13204 10.9196 4.64295 9.64102 4.64295Z" ></path>
    </g>
    <defs>
      <clipPath id="clip0_1_478">
        <rect width="20" height="19" fill="white"></rect>
      </clipPath>
    </defs>
  </symbol>
  <symbol fill="none" xmlns="http://www.w3.org/2000/svg" viewBox="0 0 18 20" id="person">
    <path d="M12.3161 1.45446C11.4741 0.516515 10.298 0 9 0C7.69504 0 6.51512 0.51339 5.67701 1.44553C4.82983 2.38793 4.41705 3.66873 4.51397 5.05176C4.70608 7.78031 6.71848 9.99994 9 9.99994C11.2815 9.99994 13.2905 7.78076 13.4856 5.05265C13.5838 3.68212 13.1684 2.404 12.3161 1.45446ZM16.6152 19.9999H1.38482C1.18547 20.0026 0.988051 19.9594 0.806921 19.8734C0.625791 19.7874 0.46551 19.6609 0.337738 19.503C0.056496 19.1561 -0.0568664 18.6825 0.0270736 18.2035C0.392256 16.1133 1.53194 14.3575 3.32323 13.1249C4.91463 12.0307 6.93049 11.4285 9 11.4285C11.0695 11.4285 13.0854 12.0312 14.6768 13.1249C16.4681 14.3571 17.6077 16.1129 17.9729 18.203C18.0569 18.682 17.9435 19.1557 17.6623 19.5026C17.5345 19.6606 17.3743 19.7872 17.1931 19.8732C17.012 19.9592 16.8146 20.0025 16.6152 19.9999Z" fill="#7EB693"></path>
  </symbol>
</svg>